<?xml version="1.0" encoding="UTF-8"?>
<svg width="65px" height="66px" viewBox="0 0 65 66" version="1.1" xmlns="http://www.w3.org/2000/svg" xmlns:xlink="http://www.w3.org/1999/xlink">
    <!-- Generator: Sketch 61 (89581) - https://sketch.com -->
    <title>bingo-ball-cell</title>
    <desc>Created with Sketch.</desc>
    <defs>
        <path d="M33.6150372,16 C34.1227427,16 34.5343192,16.4214958 34.5343192,16.9414372 C34.5343192,17.0385125 34.5199723,17.1321562 34.4933314,17.2202657 C34.658644,17.2323717 34.8226096,17.2470793 34.9837583,17.2631343 L34.9815789,17.2350778 C34.9815789,16.7151364 35.3931555,16.2936407 35.9008609,16.2936407 C36.4085663,16.2936407 36.8201429,16.7151364 36.8201429,17.2350778 C36.8201429,17.3341143 36.8052104,17.429579 36.7775254,17.5192395 C36.9517113,17.5523449 37.1200256,17.5878923 37.2815305,17.625194 C37.3493834,17.0367141 37.7289686,16.5872813 38.1866845,16.5872813 C38.69439,16.5872813 39.1059665,17.1402445 39.1059665,17.8223591 C39.1059665,17.9731823 39.0858445,18.1176912 39.0490105,18.2513044 C39.2822729,18.3881351 39.4492339,18.5338138 39.5399436,18.6855708 C49.100208,20.9670152 55.9990798,27.2226632 56,32.399194 C56.0011484,38.8592885 45.254834,47 32,47 C18.745166,47 7.99885162,39.7402105 8,32.399194 C8.00093006,26.4538087 15.0482697,20.5617015 24.7690184,18.5362418 C24.6624143,18.3354798 24.5996317,18.08877 24.5996317,17.8223591 C24.5996317,17.1402445 25.0112082,16.5872813 25.5189137,16.5872813 C26.0266191,16.5872813 26.4381957,17.1402445 26.4381957,17.8223591 L26.4370185,17.7991537 C26.6327534,17.7404591 26.8431204,17.684815 27.0667535,17.6325563 C27.0119145,17.5118219 26.9811961,17.3771237 26.9811961,17.2350778 C26.9811961,16.7151364 27.3927727,16.2936407 27.9004781,16.2936407 C28.4081835,16.2936407 28.8197601,16.7151364 28.8197601,17.2350778 C28.8197601,17.2667649 28.8182314,17.2980864 28.8152456,17.3289691 C28.9807011,17.3075864 29.1512762,17.2881624 29.3252074,17.2703145 C29.2875095,17.1685572 29.2670197,17.0574476 29.2670197,16.9414372 C29.2670197,16.4214958 29.6785963,16 30.1863017,16 C30.6940072,16 31.1055837,16.4214958 31.1055837,16.9414372 C31.1055837,17.0132619 31.0977298,17.0832081 31.0828533,17.1504241 C31.4437468,17.136746 31.8135981,17.1298795 32.1899872,17.1298795 C32.3671387,17.1298795 32.5428419,17.1314006 32.7168918,17.1343924 L32.7019399,17.0512286 L32.7019399,17.0512286 L32.6957552,16.9414372 C32.6957552,16.4214958 33.1073318,16 33.6150372,16 Z M31.9828265,21.1208917 L29.053788,28.3490378 L21.397154,28.9517929 L27.2435426,34.021788 L25.4405211,41.6224572 L31.9828265,37.5277404 L38.5251319,41.6224572 L36.7221105,34.021788 L42.5684991,28.9517929 L34.9118651,28.3490378 L31.9828265,21.1208917 Z" id="path-1"></path>
        <filter x="-39.6%" y="-54.8%" width="179.2%" height="222.6%" filterUnits="objectBoundingBox" id="filter-2">
            <feOffset dx="0" dy="2" in="SourceAlpha" result="shadowOffsetOuter1"></feOffset>
            <feGaussianBlur stdDeviation="6" in="shadowOffsetOuter1" result="shadowBlurOuter1"></feGaussianBlur>
            <feColorMatrix values="0 0 0 0 1   0 0 0 0 1   0 0 0 0 1  0 0 0 0.319001311 0" type="matrix" in="shadowBlurOuter1"></feColorMatrix>
        </filter>
    </defs>
    <g id="Page-1" stroke="none" stroke-width="1" fill="none" fill-rule="evenodd">
        <g id="14x-bingo-afl" transform="translate(-12.000000, -448.000000)">
            <g id="bingo-ball-cell" transform="translate(12.000000, 448.000000)">
                <rect id="cell-background" fill="#C52B39" x="0" y="0" width="64" height="64" rx="2"></rect>
                <g id="bingo-ball" transform="translate(32.000000, 31.500000) rotate(-50.000000) translate(-32.000000, -31.500000) ">
                    <use fill="black" fill-opacity="1" filter="url(#filter-2)" xlink:href="#path-1"></use>
                    <use fill="#FFFFFF" fill-rule="evenodd" xlink:href="#path-1"></use>
                </g>
            </g>
        </g>
    </g>
</svg>